<svg xmlns="http://www.w3.org/2000/svg" viewBox="0 0 32 32"><path
     style="fill:#C7A303"
     d="m 18.341298,0.57276407 c -1.59357,-0.51173532 -4.342734,0.58067713 -3.418234,2.60343743 0.578753,2.1830148 0.73719,4.4445538 1.122662,6.6635976 0.891398,1.5689439 2.35939,-1.8227641 1.663758,-1.3545289 -0.661859,1.4631317 1.575306,2.4786188 1.698,0.6066253 C 20.529142,6.907592 21.610337,4.1370273 20.253221,1.8099619 19.831232,1.1571836 19.142752,0.61435795 18.341298,0.57276407 Z M 10.844528,1.7162976 C 9.4696925,2.0948542 7.6981974,3.1275981 7.90576,4.785773 c 0.6373348,1.6011938 2.190136,2.5928326 3.214091,3.9357524 0.703346,0.8806211 1.548649,3.0389226 2.869066,1.6892836 0.469802,-0.7415055 -0.98698,-3.1183287 -0.205154,-1.1457381 0.431092,1.4546811 2.407952,0.5637158 1.533296,-0.751541 C 15.040165,6.0889262 14.448308,3.2004283 12.063595,1.9854852 11.680029,1.8175123 11.263534,1.7231559 10.844528,1.7162976 Z m 12.322375,1.2871321 c -1.759648,0.8892574 -1.34167,3.2333803 -2.492248,4.5865647 -0.55753,1.0875167 -2.159956,3.3156606 -0.175502,3.8302976 0.521223,-0.163294 1.711651,-1.7087216 0.587413,-0.581029 -1.18713,1.353358 1.491889,2.303579 1.911664,0.770252 1.948253,-1.331692 4.028117,-3.3639445 3.773032,-5.9262534 C 26.399297,4.0577743 24.642888,3.3012554 23.166903,3.0034297 Z M 6.1443071,6.372038 c -1.976953,-0.083639 -2.8890587,2.0974801 -3.1288343,3.742276 0.3389416,2.141647 2.9900748,1.786994 4.534839,2.406471 1.1511163,0.423756 2.9904182,1.857064 3.7863392,0.217366 0.348575,-0.882287 -2.0955312,-2.030309 -0.493995,-0.82764 1.554285,0.672894 1.936617,-1.444 0.541772,-1.9370603 C 10.058823,8.3082289 8.4248517,6.4963601 6.1443071,6.372038 Z M 28.089994,8.4951921 c -2.038144,1.2587664 -3.651186,3.1537479 -5.884815,4.1023469 -1.372874,0.781597 0.92316,2.835404 1.540531,1.677905 -1.719675,-0.378195 -1.687434,2.614472 0.106175,1.920291 2.239319,0.0056 4.974017,-0.266026 6.227182,-2.408501 1.088482,-1.895956 -0.268134,-4.3164308 -1.989073,-5.2920419 z M 16.151363,10.452451 c -3.837328,-0.235079 -6.6706742,4.743266 -4.556667,7.936708 1.763248,3.372842 7.36385,3.341324 9.13306,-0.0091 2.019915,-3.240692 -0.66363,-8.183662 -4.576393,-7.927608 z M 5.5145759,12.865254 C 3.6470362,12.677107 1.5080102,13.976745 1.3742045,15.967441 1.6250606,17.324672 1.803589,19.752189 3.6946371,19.582664 5.7049625,18.934414 7.5880858,17.865705 9.7040965,17.55911 11.197009,17.063153 9.9962226,14.907974 8.7113792,15.402122 10.008495,16.378921 11.46371,13.779948 9.4116273,13.78785 8.1731538,13.269994 6.8418669,13.021544 5.5145759,12.865254 Z m 24.3358411,3.582487 c -2.462139,0.438282 -4.976124,0.239154 -7.451421,0.26099 -1.586537,0.415724 1.306892,2.920323 0.557019,1.861668 -1.725615,-0.6467 -1.795487,2.002924 -0.175571,2.05018 1.755384,1.265527 4.051975,2.607363 6.248878,1.651867 1.738834,-1.007748 1.847286,-3.395517 1.414191,-5.131937 -0.130527,-0.277901 -0.329818,-0.529562 -0.593096,-0.692768 z m -19.188249,1.270671 c -2.6062364,0.776165 -5.7158291,1.654745 -6.9097708,4.377576 -0.6949116,1.821128 0.6998372,4.007935 2.495803,4.459963 1.9741912,-0.173341 2.2554501,-2.503345 3.460165,-3.664058 0.8816888,-0.852947 3.1755298,-2.52404 1.6554778,-3.658983 -0.647559,-0.185507 -2.4964271,1.178347 -1.134298,0.265839 0.645802,-0.298477 1.346486,-1.325923 0.432623,-1.780337 z m 10.189067,2.124672 c -1.628295,-0.01404 -0.287052,2.863314 -0.04354,2.453758 -0.447921,-1.402119 -2.924624,-1.245583 -1.726467,0.40942 0.934178,2.32164 2.263242,5.021045 4.910943,5.668951 1.85688,0.192073 3.598229,-1.674813 3.407724,-3.48507 -0.689208,-1.95069 -3.120867,-2.053383 -4.402791,-3.440049 -0.69347,-0.564141 -1.418367,-1.088051 -2.145865,-1.60701 z m -8.242783,0.623078 c -1.900856,2.166894 -4.3074247,4.562058 -4.0396483,7.693645 0.3391316,1.981052 2.8124503,2.987278 4.5733123,2.366416 1.642901,-1.34308 0.490916,-3.711425 1.183461,-5.474022 0.369136,-1.093198 1.209151,-3.947161 -0.560075,-3.640718 -0.426392,0.398269 -1.777144,2.630371 -0.835819,1.009709 0.455793,-0.612213 0.811045,-1.83815 -0.321231,-1.95503 z m 5.414477,1.081891 c -1.591185,-0.692 -1.202165,2.342466 -1.207496,2.430312 0.414142,-1.092494 -1.189499,-3.332912 -1.515581,-1.233427 -0.489788,2.596431 -1.051385,5.671268 0.746018,7.910156 1.418287,1.420864 3.799533,0.815836 5.145964,-0.399468 1.009366,-1.795847 -0.893271,-3.339977 -1.514156,-4.891832 -0.591309,-1.25455 -1.059621,-2.562906 -1.654749,-3.815741 z" /></svg>
